<svg xmlns="http://www.w3.org/2000/svg" viewBox="0 0 65 65">
  <rect x="0" y="0" width="65" height="65" rx="10" ry="10" fill="#5865F2"/>
  <!-- Flip whole glyph upside down by rotating around center -->
  <g transform="rotate(180 32.5 32.5)">
    <path fill="#FFFFFF" d="M60.104 4.5C54.888 1.667 49.328 0 43.5 0 43.5 0 41.75 6.25 32.5 6.25 23.25 6.25 21.5 0 21.5 0 15.672 0 10.112 1.667 4.896 4.5 0 12.75 0 20.667 0 28.5 0 41.75 10.5 54.5 10.5 54.5 18.25 58.25 25.5 59.5 32.5 59.5 39.5 59.5 46.75 58.25 54.5 54.5 54.5 54.5 65 41.75 65 28.5 65 20.667 65 12.75 60.104 4.5Z" opacity="0.12"/>
    <path fill="#FFFFFF" d="M59.5 9.25C54.5 6.25 49 4.5 43.5 4.5 41.5 4.5 40 9.5 32.5 9.5 25 9.5 23.5 4.5 21.5 4.5 16 4.5 10.5 6 5.5 9.25 1.5 16.5 1.5 23.5 1.5 30.5 1.5 42 11 53.5 11 53.5 18 57 25 58 32.5 58 40 58 47 57 54 53.5 54 53.5 63 42 63 30.5 63 23.5 63 16.5 59.5 9.25Z"/>
    <!-- Add two filled circle eyes (positions chosen to match glyph) -->
    <circle cx="19.5" cy="26.8" r="4.7" fill="#FFFFFF" />
    <circle cx="46.4" cy="26.8" r="4.7" fill="#FFFFFF" />
    <path fill="#FFFFFF" d="M15 39.6c6.9-5.3 25-18.6 36.5-4.6 0 0-2 5.5-11.4 8.4-3.9 1.3-8.4 2.6-15.6 2.6-7.2 0-11.8-1.3-14.3-2.6-3.6-1.8-5.6-3.8-5.2-6.8z"/>
  </g>
</svg>